<?xml version="1.0" encoding="utf-8"?>
<!-- Generator: Adobe Illustrator 21.1.0, SVG Export Plug-In . SVG Version: 6.00 Build 0)  -->
<svg version="1.1" id="Layer_1" xmlns="http://www.w3.org/2000/svg" xmlns:xlink="http://www.w3.org/1999/xlink" x="0px" y="0px"
	 viewBox="0 0 600 160" style="enable-background:new 0 0 600 160;" xml:space="preserve">
<style type="text/css">
	.st0{fill:#336633;}
</style>
<g>
	<g>
		<path class="st0" d="M96.8,79.4c-0.5-2.3-1.1-4.5-2-6.4c-0.9-1.9-1.9-3.6-3.1-5.1c-1.5-1.8-3-2.8-4.5-3.2
			c-0.2-0.1-0.5-0.1-0.7-0.1c-0.3,0-0.6,0.1-1,0.1c-0.6,0.1-1.1,0.2-1.6,0.4c-0.8,0.3-1.5,0.9-1.9,1.7c-0.5,0.9-0.6,2-0.3,3.2
			c0.1,0.4,0.3,0.8,0.5,1.1c0.7,1,1.4,2.1,2,3.4c0.6,1.3,1.1,2.7,1.5,4.2c0.4,1.4,0.6,2.8,0.6,4.2c0,1.3-0.2,2.4-0.6,3.3
			c-0.4,0.8-0.9,1.4-1.6,1.9c-0.8,0.5-1.9,0.8-3.3,0.8c-0.9,0-2.2-0.1-2.9-0.8c-0.8-0.6-1.4-1.5-1.8-2.6c-0.6-1.4-0.9-2.9-1.1-4.4
			c-0.2-1.8-0.4-3.4-0.6-5c-0.2-1.8-0.5-3.2-0.8-4.4c-0.7-2.3-2.3-3.7-4.5-3.7c-0.5,0-1,0.1-1.7,0.4c-0.4,0.1-0.7,0.3-1.1,0.5
			c-0.4,0.2-0.8,0.4-1.1,0.7c-1.2,1-1.5,2.1-1.5,2.8l-0.5,11c0,0.5-0.2,1-0.6,1.6c-0.7,0.9-1.5,1.7-2.4,2.4c-1,0.8-2.1,1.4-3.2,1.9
			c-1.2,0.5-1.9,0.6-2.2,0.6c-0.4,0-0.7-0.1-1-0.3c-0.6-0.5-1.2-1.1-1.7-1.8c-0.6-0.8-1.1-1.7-1.5-2.7c-0.5-1-0.8-2.1-1.1-3.2
			c-0.3-1.1-0.5-2.2-0.7-3.2c-0.1-1-0.2-1.7-0.2-2.3c0-0.8,0-1.6,0.2-2.3c0.2-0.9,0.4-1.7,0.6-2.6c0.2-0.9,0.4-1.8,0.6-2.7
			c0.3-1.1,0.4-2.2,0.4-3.4c0-0.8,0-1.7-0.2-2.5c-0.2-1.2-1-2.7-3.4-3.6c-0.4-0.1-0.7-0.2-1.1-0.2c-0.8,0-1.6,0.4-2.2,1
			c-2.1,2.3-3.6,4.9-4.5,7.8c-0.9,2.8-1.3,5.7-1.2,8.6c0,2.9,0.5,5.8,1.4,8.6c0.9,2.7,2,5.3,3.5,7.5c1.5,2.3,3.3,4.3,5.4,5.8
			c2.2,1.7,4.7,2.6,7.3,2.8c0.2,0,0.5,0,0.8,0c2.3,0,4.8-0.6,7.8-2.2c1.9-1,3.7-2.5,5.5-4.5l0.1,0.1c0.7,0.8,1.4,1.5,2,2.1
			c0.8,0.7,1.6,1.3,2.4,1.8c0.9,0.5,2.1,0.8,3.5,1c1,0.1,2.1,0.2,3.5,0.2c0.3,0,0.5,0,0.8,0c1.6,0,3.7-0.1,6.2-0.3
			c0.4-0.1,0.8-0.2,1.2-0.4c2.6-1.4,4.5-3.2,5.8-5.5c1.2-2.2,2-4.5,2.2-7C97.4,84.2,97.3,81.8,96.8,79.4z M93.5,86.7
			c-0.2,2.1-0.8,4-1.8,5.8s-2.5,3.2-4.6,4.3c-2.5,0.2-4.5,0.3-6,0.3c-1.6,0-2.9,0-3.9-0.2c-1-0.1-1.9-0.4-2.5-0.7
			c-0.6-0.3-1.2-0.8-1.8-1.3c-0.6-0.5-1.2-1.2-1.8-1.9c-0.4-0.8-1.3-1.7-2.4-2.7c-2.2,3-4.5,5.1-6.7,6.3c-2.2,1.2-4.4,1.7-6.4,1.6
			c-2-0.1-4-0.9-5.8-2.2c-1.8-1.3-3.4-3-4.7-5c-1.3-2-2.4-4.3-3.2-6.8s-1.2-5.1-1.3-7.7c-0.1-2.6,0.3-5.2,1-7.7
			c0.7-2.5,2-4.7,3.8-6.6c0.9,0.3,1.4,0.8,1.5,1.3c0.1,0.6,0.2,1.3,0.2,1.9c0,0.9-0.1,1.9-0.3,2.7c-0.2,0.9-0.4,1.7-0.6,2.6
			c-0.2,0.9-0.4,1.8-0.6,2.8s-0.3,1.9-0.3,2.9c0,0.7,0.1,1.6,0.3,2.7c0.2,1.1,0.4,2.2,0.7,3.5c0.3,1.2,0.7,2.4,1.2,3.6
			s1.1,2.3,1.8,3.3s1.5,1.8,2.3,2.4c0.8,0.6,1.8,1,2.8,1c0.9,0,2.1-0.3,3.4-0.9s2.6-1.3,3.8-2.2c1.2-0.9,2.2-1.9,3-3
			c0.8-1.1,1.2-2.2,1.2-3.3l0.5-10.9c0-0.2,0.1-0.3,0.3-0.5c0.2-0.2,0.5-0.3,0.7-0.5c0.3-0.1,0.5-0.3,0.8-0.4
			c0.3-0.1,0.5-0.2,0.6-0.2c0.8,0,1.3,0.5,1.6,1.5c0.3,1,0.5,2.3,0.7,3.9c0.2,1.6,0.4,3.3,0.6,5.1c0.2,1.8,0.6,3.5,1.2,5.1
			c0.6,1.6,1.5,2.9,2.6,3.9c1.1,1,2.7,1.5,4.8,1.5c2.1-0.1,3.7-0.5,4.9-1.3c1.2-0.8,2.1-1.9,2.7-3.2c0.6-1.3,0.8-2.8,0.8-4.5
			c0-1.6-0.3-3.3-0.7-4.9c-0.4-1.6-1-3.2-1.7-4.7s-1.5-2.8-2.3-3.9c-0.1-0.4-0.1-0.8,0-1c0.1-0.2,0.3-0.3,0.5-0.4
			c0.2-0.1,0.4-0.1,0.7-0.2c0.3-0.1,0.5,0,0.7,0c0.9,0.2,1.9,1,2.9,2.2c1,1.3,1.9,2.7,2.7,4.5c0.8,1.8,1.4,3.7,1.8,5.8
			C93.6,82.5,93.7,84.6,93.5,86.7z"/>
		<g>
			<path class="st0" d="M135.2,71.5c-1.8-1.4-4.4-2.6-7.6-3.8c-1.8,0-3.7,0.3-5.7,0.8s-3.8,1.3-5.4,2.4c-1.6,1.1-3,2.4-4,4
				c-1,1.7-1.6,3.6-1.6,5.7c0,1.7,0.3,3.4,1,5c0.7,1.6,1.5,3,2.7,4.1c1.1,1.2,2.5,2.1,4.1,2.8c1.6,0.7,3.2,1,5,1
				c0.9,0.1,2.1,0,3.5-0.5c1.4-0.4,2.7-1,4.1-1.8c1.4-0.8,2.7-1.8,3.9-2.9c1.3-1.1,2.3-2.4,3.1-3.8c0.8-1.4,1.4-2.8,1.5-4.3
				c0.2-1.5-0.1-3-0.8-4.4C138.3,74.3,137,72.9,135.2,71.5z M136.8,79.9c-0.1,1.1-0.5,2.1-1.1,3.1c-0.7,1.1-1.6,2.2-2.6,3.1
				c-1.1,1-2.2,1.9-3.4,2.6c-1.1,0.7-2.3,1.3-3.4,1.6c-1,0.3-1.6,0.4-2,0.4c-0.1,0-0.2,0-0.3,0c-0.2,0-0.3,0-0.4,0
				c-1.4,0-2.6-0.3-3.8-0.8c-1.2-0.6-2.2-1.3-3.1-2.2c-0.8-0.9-1.5-2-2-3.2c-0.5-1.3-0.7-2.5-0.7-3.9c0-1.6,0.4-2.9,1.1-4
				c0.8-1.2,1.8-2.3,3.1-3.1c1.3-0.9,2.8-1.6,4.5-2c1.5-0.4,3-0.7,4.4-0.7c2.7,1,4.9,2.1,6.3,3.2c1.5,1,2.4,2.1,2.9,3.1
				S136.9,79,136.8,79.9z"/>
			<path class="st0" d="M147,75.9c-0.4-1.5-1-3-1.7-4.5s-1.6-2.9-2.6-4.2c-1.1-1.4-2.3-2.6-3.6-3.7c-1.3-1.1-2.8-2-4.3-2.6
				c-1.6-0.7-3.4-1-5.2-1c-3,0-6,0.4-9,1.2c-3.1,0.8-5.8,2.1-8.3,3.9s-4.6,4.1-6.1,6.7c-1.6,2.7-2.4,5.9-2.4,9.5
				c0,3,0.6,5.8,1.6,8.3c1.1,2.6,2.6,4.8,4.5,6.5c1.9,1.7,4.1,3.1,6.6,4s5.2,1.4,8.1,1.4c2.8,0,5.6-0.4,8.3-1.4
				c2.8-0.9,5.2-2.2,7.4-4c2.2-1.8,4-4,5.3-6.6c1.3-2.7,2-5.7,2-9C147.6,79,147.4,77.4,147,75.9z M143,88.1
				c-1.1,2.2-2.6,4.1-4.5,5.6c-1.9,1.5-4,2.7-6.4,3.5c-2.4,0.8-4.8,1.2-7.4,1.2c-2.6,0-4.9-0.4-7.1-1.2c-2.1-0.8-4-1.9-5.6-3.4
				c-1.6-1.4-2.8-3.2-3.7-5.4c-0.9-2.2-1.5-4.5-1.5-7.1c0-3.1,0.7-5.7,2-8c1.3-2.3,3.1-4.2,5.3-5.8c2.2-1.6,4.6-2.7,7.3-3.5
				s5.4-1.1,8.2-1.1c1.4,0,2.8,0.3,4.1,0.8s2.5,1.3,3.6,2.2c1.1,0.9,2.2,2,3.1,3.2c0.9,1.2,1.7,2.4,2.3,3.7c0.6,1.3,1.1,2.6,1.5,3.9
				c0.4,1.3,0.5,2.6,0.5,3.8C144.7,83.3,144.1,85.9,143,88.1z"/>
		</g>
		<path class="st0" d="M196.6,83c-0.3-2.1-0.7-4.3-1.4-6.5s-1.5-4.4-2.4-6.5c-1-2.3-2.2-4.3-3.6-6.1c-1.5-1.9-3.2-3.4-5.1-4.6
			c-2.1-1.3-4.4-1.9-6.8-1.9c-1.8,0-3.7,0.3-5.5,1.1c-1.6,0.7-3.1,1.4-4.5,2.2l-3.6,2c-0.1,0-0.1,0.1-0.2,0.1
			c-0.4-0.5-1.3-1.3-3-1.3c-0.8,0-1.6,0.1-2.3,0.4c-1.6,0.6-2.5,2.1-2.5,3.8v5.1c0,2.2,0.1,4.5,0.2,7c0.2,2.5,0.4,5.1,0.8,7.7
			c0.4,2.7,0.9,5.1,1.6,7.3c0.8,2.3,1.8,4.3,3.1,5.9c1.6,2,3.7,3,6.2,3c1.6,0,3-1.4,3.1-3.2c0-2-0.2-3.9-0.6-5.9
			c-0.4-1.9-0.8-3.7-1.2-5.5c-0.4-1.7-0.8-3.4-1.1-5.1c-0.2-1.5-0.4-3.1-0.4-4.7c0-1.4,0.2-2.7,0.7-3.8c0.4-1.1,1.1-2,1.9-2.8
			c0.8-0.8,1.8-1.4,2.9-1.8c1.2-0.4,2.4-0.6,3.8-0.6c0.3,0,1.5,0,3,1.6c1.4,1.4,2.5,3.3,3.5,5.8c1,2.6,1.7,5.7,2.2,9.2
			s0.5,7.3,0,11.3c0,0.1,0,0.2,0,0.3c0,1.3,0.7,2.5,1.8,3.1c0.4,0.3,0.8,0.4,1.3,0.6s0.9,0.3,1.4,0.3c0.4,0.1,0.7,0.1,0.9,0.1
			c1.1,0,3-0.3,4.3-2.6c0.6-1.1,1-2.3,1.3-3.6c0.3-1.1,0.4-2.2,0.5-3.3c0.1-1.1,0.1-1.9,0.1-2.5C197,87,196.9,85.1,196.6,83z
			 M193.8,90.9c-0.1,1-0.2,2-0.4,3c-0.2,1-0.5,1.9-1,2.6c-0.4,0.8-1,1.1-1.7,1.1c-0.1,0-0.3,0-0.6,0c-0.3,0-0.6-0.1-0.8-0.2
			c-0.3-0.1-0.5-0.2-0.7-0.3c-0.2-0.1-0.3-0.3-0.3-0.5c0.5-4.3,0.5-8.3,0-12.1s-1.3-7.1-2.4-9.9c-1.1-2.8-2.5-5.1-4.1-6.8
			c-1.6-1.7-3.3-2.5-5.2-2.5c-1.7,0-3.3,0.3-4.8,0.8c-1.5,0.6-2.8,1.4-3.9,2.4c-1.1,1.1-2,2.3-2.6,3.8c-0.6,1.5-1,3.1-1,4.9
			s0.2,3.6,0.5,5.3c0.3,1.8,0.7,3.5,1.1,5.3c0.4,1.8,0.8,3.5,1.1,5.3c0.3,1.8,0.5,3.6,0.5,5.4c-1.6,0-2.9-0.6-3.9-1.9
			c-1.1-1.3-1.9-2.9-2.6-4.9c-0.6-2-1.1-4.3-1.5-6.8c-0.4-2.5-0.6-5-0.8-7.4c-0.1-2.4-0.2-4.7-0.2-6.9c0-2.2,0.1-3.6,0.1-4.9
			c0-0.5,0.2-0.8,0.5-1c0.4-0.1,0.8-0.2,1.2-0.2c0.3,0,0.6,0.1,0.7,0.3c0.1,0.2,0.2,0.4,0.3,0.6c0.1,0.2,0.1,0.4,0.3,0.6
			c0.1,0.2,0.3,0.3,0.6,0.3c0.8,0,1.7-0.3,2.8-0.9c1.1-0.6,2.3-1.3,3.6-2c1.3-0.7,2.7-1.4,4.2-2c1.5-0.6,2.9-0.9,4.4-0.9
			c1.9,0,3.6,0.5,5.2,1.5c1.6,1,3,2.3,4.3,3.9c1.3,1.6,2.3,3.4,3.2,5.4s1.6,4.1,2.3,6.1c0.6,2.1,1.1,4.1,1.3,6.1
			c0.2,2,0.4,3.7,0.4,5.1C193.9,89.1,193.9,89.9,193.8,90.9z"/>
		<g>
			<path class="st0" d="M250.3,91.4c0,0-0.3-0.6-0.5-2.6c-0.2-1.7-0.4-3.8-0.6-6.3s-0.4-5.2-0.6-8.1c-0.2-2.9-0.5-6.1-0.8-9.2
				c-0.4-3.2-0.8-6.3-1.3-9.4s-1.2-6.1-2-8.9c-0.8-2.8-1.8-5.4-3-7.6c-1.2-2.4-2.8-4.3-4.7-5.7c-0.5-0.4-1.2-0.6-1.8-0.6
				c-0.2,0-0.5,0-0.7,0.1c-2.2,0.6-3.7,2.1-4.2,4.3c-0.3,1.4-0.2,3.1,0.1,5.1c0.3,1.8,0.8,3.7,1.5,5.9c0.6,2,1.2,4.2,1.8,6.4
				c0.5,2.2,1,4.4,1.4,6.7c0,0.3,0.1,0.5,0.1,0.8c-0.1,0-0.1-0.1-0.2-0.1c-1.6-1-3.2-1.9-4.7-2.7c-1.6-0.8-3.2-1.5-4.7-1.9
				c-1.7-0.5-3.3-0.7-4.9-0.7c-3.2,0-5.9,0.8-8.2,2.4c-2.1,1.5-3.8,3.4-5.2,5.7c-1.2,2.2-2.2,4.6-2.8,7.2c-0.6,2.5-0.9,4.9-0.9,7.2
				c0,1.9,0.3,4,0.9,6.4c0.6,2.4,1.5,4.7,2.7,6.9c1.3,2.2,2.9,4.2,4.7,5.8c2.1,1.8,4.6,2.8,7.5,2.8c2.2,0,4.5-0.3,6.5-1.1
				c2.1-0.7,4.1-1.7,6-2.8c1.9-1.1,3.6-2.5,5.2-4c0.7-0.7,1.3-1.3,1.9-2c0.1,0.1,0.1,0.1,0.1,0.2c0.2,0.8,0.4,1.5,0.7,2.2
				c0.3,0.9,0.9,1.7,1.5,2.4c0.9,1,2.2,1.6,3.6,1.6c1,0,2-0.2,3-0.5c1.9-0.6,3-2.3,3-4.5C250.7,92.3,250.5,91.8,250.3,91.4z
				 M246.5,94.7c-0.6,0.2-1.3,0.3-2,0.3c-0.6,0-1-0.2-1.4-0.6c-0.4-0.4-0.7-0.9-0.9-1.5c-0.2-0.6-0.4-1.2-0.6-1.9s-0.4-1.3-0.6-1.9
				s-0.5-1.1-0.8-1.5s-0.6-0.6-1.1-0.6c-0.1,0-0.3,0-0.5,0s-0.3,0.1-0.3,0.1c-1.1,1.4-2.3,2.9-3.7,4.2c-1.4,1.4-3,2.6-4.7,3.6
				s-3.5,1.9-5.4,2.5c-1.9,0.6-3.7,0.9-5.6,0.9c-2.1,0-4-0.7-5.6-2.1c-1.6-1.4-2.9-3.1-4-5c-1.1-1.9-1.9-4-2.4-6.2
				c-0.2-2.1-0.5-4-0.5-5.6c0-2.1,0.3-4.2,0.8-6.5c0.5-2.3,1.4-4.4,2.5-6.4c1.1-2,2.6-3.6,4.3-4.8c1.7-1.2,3.9-1.9,6.5-1.9
				c1.3,0,2.7,0.2,4,0.6c1.3,0.4,2.7,0.9,4.1,1.7c1.4,0.7,2.9,1.6,4.4,2.6s3.2,2,4.9,3.2c0.2-2.2,0.1-4.5-0.3-6.9
				c-0.4-2.4-0.9-4.7-1.5-7c-0.6-2.3-1.2-4.4-1.9-6.5c-0.6-2-1.1-3.9-1.4-5.5c-0.3-1.6-0.3-3-0.1-4c0.2-1.1,0.9-1.7,2-2
				c1.5,1.1,2.8,2.7,3.9,4.7c1.1,2,2,4.4,2.8,7.1s1.4,5.5,1.9,8.6c0.5,3,0.9,6.1,1.3,9.2c0.3,3.1,0.6,6.2,0.8,9.1
				c0.2,3,0.4,5.7,0.6,8.2s0.4,4.6,0.6,6.4s0.5,3,0.9,3.7C247.5,93.9,247.2,94.4,246.5,94.7z"/>
			<path class="st0" d="M223,66.2c-2,0-3.7,0.4-5.1,1.3c-1.4,0.9-2.6,2.1-3.6,3.5s-1.6,3.1-2.1,4.8c-0.4,1.7-0.6,3.4-0.6,5.1
				c0.6,2,1.1,3.8,1.5,5.3c0.4,1.5,1,2.7,1.6,3.7c0.6,0.9,1.4,1.7,2.3,2.1c0.9,0.5,2.1,0.7,3.5,0.7c1.8,0,3.7-0.5,5.7-1.5
				s3.9-2.4,5.6-4c1.7-1.6,3.1-3.4,4.3-5.3c1.1-1.9,1.7-3.8,1.7-5.6c0-0.2,0-0.5,0-1s0-0.8,0-1c-3-2.9-5.7-5-8.2-6.2
				C227.1,66.8,224.9,66.2,223,66.2z M234.7,76.3c0,1.3-0.5,2.6-1.3,4.1c-0.9,1.6-2.2,3.2-3.7,4.6s-3.1,2.6-4.9,3.5
				c-1.6,0.8-3,1.2-4.3,1.2c-1.2,0-1.8-0.3-2.1-0.4c-0.4-0.3-0.8-0.7-1.2-1.2c-0.4-0.6-0.8-1.6-1.2-2.8c-0.4-1.4-0.9-3.1-1.4-4.9
				c0-1.2,0.2-2.5,0.5-3.8c0.4-1.4,0.9-2.7,1.7-3.9c0.8-1.1,1.6-1.9,2.7-2.6c0.9-0.6,2-0.9,3.3-0.9h0.1c1.4,0,3.2,0.6,5.3,1.6
				c1.9,1,4.1,2.6,6.5,4.8V76.3z"/>
		</g>
		<path class="st0" d="M303.4,90.5c-0.5-0.9-1.5-1.5-2.6-1.5c-0.1,0-0.1,0-0.2,0l-14.8,1c-3.2-0.2-5.8-0.5-7.9-1.1
			c-2-0.6-3.7-1.3-5-2.1c-1.2-0.8-2-1.6-2.6-2.5c-0.3-0.5-0.6-1.1-0.8-1.6c0.3,0.1,0.7,0.1,1.1,0.1h2c2.1,0,4.3-0.3,6.6-1
			c2.3-0.6,4.5-1.6,6.5-2.8c2.1-1.3,3.9-3,5.3-4.9c1.5-2.1,2.3-4.6,2.3-7.2c0-1.9-0.2-3.7-0.6-5.4c-0.5-1.9-1.3-3.5-2.4-5
			c-1.1-1.5-2.5-2.7-4.2-3.7s-3.7-1.6-5.9-1.9c-0.2,0-0.3,0-0.4,0c-3.6,0-6.8,0.7-9.6,2.1c-2.7,1.4-5.1,3.3-7,5.6
			c-1.9,2.3-3.3,5-4.3,8c-0.9,3-1.4,6.1-1.4,9.3c0,3.9,0.8,7.5,2.2,10.6c1.4,3.1,3.4,5.8,5.9,8c2.5,2.1,5.3,3.8,8.5,5
			s6.6,1.8,10.2,1.8c1.4,0,3-0.1,4.6-0.5c1.6-0.2,3.3-0.6,5-1.1c1.8-0.5,3.4-1.2,5-2.1c1.7-1,3.2-2.3,4.3-3.9
			C303.9,92.8,304,91.5,303.4,90.5z M297.5,95.2c-1.4,0.8-2.8,1.4-4.3,1.9s-3.1,0.8-4.6,1c-1.5,0.2-2.9,0.3-4.3,0.3
			c-3.2,0-6.3-0.5-9.1-1.6c-2.8-1.1-5.4-2.6-7.5-4.5c-2.2-1.9-3.9-4.3-5.1-7c-1.4-2.8-2-5.9-2-9.4c0-2.9,0.4-5.7,1.3-8.3
			c0.9-2.6,2.1-5,3.8-7c1.6-2,3.7-3.6,6-4.8s5.1-1.8,8.2-1.8c1.8,0.2,3.4,0.7,4.8,1.5c1.4,0.8,2.5,1.7,3.3,2.9
			c0.9,1.1,1.5,2.5,1.9,4c0.3,1.4,0.5,3,0.5,4.7c0,2-0.6,3.8-1.8,5.4s-2.6,3-4.4,4.1c-1.8,1.1-3.7,1.9-5.8,2.5
			c-2.1,0.6-4,0.9-5.8,0.9c-0.7,0-1.4,0-2,0c-0.7,0-1.3-0.1-1.9-0.3c-0.6-0.2-1-0.6-1.3-1c-0.3-0.4-0.5-1.1-0.5-2
			c0-0.3,0-0.5,0.1-0.7c0.1-0.2,0.3-0.3,0.7-0.4c0.4-0.1,1-0.1,1.8,0c0.8,0.1,1.8,0.3,3.2,0.5c0.8,0,1.9-0.3,3.4-0.8s3-1.2,4.5-2
			s2.9-1.8,4-2.9c1.1-1.1,1.7-2.2,1.7-3.2c0-1.1-0.2-2.2-0.5-3.3c-0.4-1.1-0.9-2-1.6-2.9c-0.7-0.8-1.6-1.5-2.6-2s-2.1-0.7-3.3-0.6
			c-2,0.2-3.7,0.7-5.3,1.6s-2.9,2-4.1,3.5c-1.1,1.4-2,3-2.6,4.7c-0.6,1.7-0.9,3.5-0.9,5.4c0,1.4,0,2.9,0.1,4.3
			c0.1,1.4,0.3,2.9,0.6,4.3c0.4,1.4,0.9,2.7,1.8,4c0.8,1.3,2,2.4,3.5,3.4s3.5,1.8,5.8,2.4s5.2,1,8.7,1.2l15-1
			C300,93.4,298.9,94.4,297.5,95.2z M268.3,72.2c0.1-1.2,0.3-2.3,0.7-3.4c0.5-1.4,1.2-2.7,2.1-3.9c0.9-1.1,1.9-2,3.2-2.7
			c1.2-0.7,2.6-1.1,4.1-1.2c0.1,0,0.3,0,0.4,0c0.5,0,0.9,0.1,1.3,0.3c0.7,0.3,1.2,0.8,1.7,1.3c0.5,0.6,0.9,1.2,1.1,1.9
			c0.3,0.8,0.4,1.6,0.4,2.4c0,0.1-0.2,0.5-0.8,1.1c-0.9,0.9-2,1.7-3.3,2.4c-1.4,0.8-2.8,1.4-4.1,1.9c-1.2,0.4-1.9,0.6-2.2,0.6
			c-1.2-0.2-2.2-0.4-2.9-0.5c-0.1,0-0.1,0-0.2,0c-0.4,0-0.8,0-1.1,0C268.6,72.4,268.5,72.4,268.3,72.2z"/>
		<path class="st0" d="M344.1,63.7c-0.3-0.9-0.7-1.7-1.2-2.4c-0.4-0.6-0.9-1.1-1.4-1.5c-0.5-0.4-0.9-0.7-1.4-1.1
			c-0.3-0.2-0.6-0.4-0.9-0.5c-0.9-0.3-1.7-0.5-2.4-0.7s-1.4-0.3-2-0.5c-0.8-0.2-1.5-0.3-2.2-0.4c-0.6-0.1-1.4-0.1-2.3-0.1
			c-1.3,0-2.7,0.2-4,0.5c-1.3,0.4-2.5,0.7-3.7,1.2c-1.2,0.4-2.3,0.9-3.4,1.4c-0.6,0.3-1.1,0.5-1.7,0.7c-0.3-0.1-0.4-0.2-0.5-0.2
			c-0.3-0.2-0.7-0.3-1-0.3c-0.3-0.1-0.5-0.1-0.8-0.1s-0.7,0.1-1,0.2c-0.5,0.1-1,0.4-1.4,0.8c-0.7,0.7-1.2,1.5-1.5,2.4
			c-0.2,0.7-0.4,1.4-0.4,2.2c0,0.7,0,1.4,0.1,2c0.1,0.3,0.1,0.6,0.1,0.9c0,0.1,0,0.1,0,0.2c0.1,2.2,0.3,4.6,0.7,7.2
			c0.4,2.7,0.9,5.4,1.5,8.1c0.6,2.7,1.4,5.5,2.3,8.2c1,2.8,2.1,5.4,3.4,7.8c0.5,1,1.5,1.6,2.6,1.6c1.6,0,3.1-0.6,4.2-2
			c1.2-1.2,1.8-2.5,1.8-3.9c0-0.1,0-0.1,0-0.2c-0.1-1.7-0.4-3.4-0.8-5c-0.4-1.4-0.8-3-1.3-4.5c-0.4-1.5-1-3-1.5-4.5
			c-0.5-1.4-0.9-2.7-1.2-4.1c-0.3-1.3-0.5-2.6-0.5-4c-0.1-1.2,0.1-2.3,0.3-3.5c0.5-0.7,1.1-1.2,1.6-1.5c0.1,0,0.2-0.1,0.3-0.1
			c0.7-0.4,1.4-0.7,2.2-0.7c0.2,0,0.3,0,0.5,0c0.9,0,1.8,0.1,2.8,0.3c1.3,0.2,2.6,0.5,3.8,0.9c1.4,0.4,2.7,0.7,4,1
			c1,0.2,2,0.3,2.9,0.3c0.4,0,0.8-0.1,1.2-0.1c1.5-0.2,2.6-1.5,2.6-3C344.5,65.5,344.4,64.5,344.1,63.7z M338.3,66.8
			c-1.2-0.2-2.5-0.6-3.8-1s-2.7-0.7-4.1-1c-1.4-0.3-2.7-0.4-4-0.3c-1.3,0.1-2.5,0.4-3.6,1.1c-1.2,0.6-2.2,1.6-3.1,3
			c-0.4,1.6-0.6,3.2-0.5,4.8c0.1,1.6,0.3,3.1,0.6,4.6s0.8,3,1.3,4.4c0.5,1.4,1,3,1.5,4.4c0.5,1.5,0.9,2.9,1.3,4.4
			c0.4,1.5,0.6,2.9,0.8,4.4c0,0.6-0.3,1.2-0.9,1.8c-0.7,0.6-1.4,0.9-2.2,0.9c-1.2-2.2-2.3-4.7-3.2-7.3s-1.6-5.3-2.3-7.9
			c-0.6-2.7-1.1-5.3-1.5-7.8c-0.4-2.5-0.6-4.8-0.7-6.9c0-0.4,0-0.8-0.1-1.3c-0.1-0.5-0.1-1,0-1.5c0-0.5,0.1-1,0.3-1.4
			c0.1-0.4,0.4-0.8,0.7-1.2h0.2c0.1,0,0.1,0,0.1,0s0,0,0.1,0c0.1,0,0.1,0,0.1,0s0.1,0,0.2,0h0.2c0.1,0.1,0.4,0.2,0.8,0.3
			c0.4,0.2,0.7,0.3,0.8,0.4c1-0.3,2-0.7,3.1-1.2c1.1-0.5,2.1-0.9,3.2-1.3c1.1-0.4,2.2-0.8,3.3-1c1.1-0.2,2.2-0.4,3.3-0.4
			c0.8,0,1.5,0,2,0.1c0.5,0.1,1.2,0.2,1.8,0.3c0.6,0.1,1.2,0.3,1.9,0.5c0.7,0.2,1.4,0.4,2.3,0.7c0.4,0.3,0.9,0.7,1.2,1
			c0.4,0.3,0.7,0.7,1,1c0.3,0.3,0.5,0.9,0.7,1.4c0.2,0.6,0.3,1.3,0.3,2.2C340.5,67.1,339.5,67,338.3,66.8z"/>
		<path class="st0" d="M391.4,44.8c-1.1-1.8-2.6-3.4-4.4-4.8c-1.8-1.4-3.7-2.5-5.7-3.4c-2.1-0.9-4.2-1.4-6.1-1.4
			c-3.3,0-6.1,0.7-8.4,2.2c-2.2,1.4-4.1,3.2-5.5,5.5c-1.3,2.1-2.4,4.6-3.1,7.2c-0.7,2.5-1.2,5.1-1.5,7.7c-0.3,2.6-0.5,5.1-0.4,7.5
			c0,1.1,0.1,2.1,0.1,3.1c-1.1,0.1-2.1,0.3-3.1,0.5c-1.3,0.3-2.5,0.9-3.5,1.6c-1.4,1.1-2.2,2.7-2.2,4.6c0,1,0.2,1.8,0.6,2.6
			c0.8,1.3,2,2,3.6,2h0.4c0.6,0,1.3-0.1,2.3-0.3c0.8-0.2,1.6-0.3,2.4-0.5c0.7-0.1,1.4-0.3,2.1-0.4c0.1,0.3,0.3,0.5,0.4,0.8
			c0.4,0.9,0.9,1.9,1.4,3c0.5,1.1,1,2.2,1.6,3.4c0.6,1.2,1.1,2.4,1.7,3.5l2.4,4.8c0.2,0.5,0.6,1.1,1,1.8c0,0.1,0.1,0.1,0.1,0.2
			c0.5,0.7,1.1,1.5,1.7,2.2c0.7,0.8,1.5,1.5,2.4,2.1c1.1,0.7,2.3,1.1,3.4,1.1c1.2,0,2.2-0.2,2.9-0.8c0.7-0.4,2.1-1.6,2.1-4
			c0-2.1-0.7-4.3-2-6.3c-1-1.5-2.1-3.2-3.3-4.9c-1.1-1.6-2.1-3.3-3-5c-0.1-0.3-0.3-0.6-0.4-0.9c0.8,0,1.6,0.1,2.3,0.1h0.6
			c1.9,0,3.4-0.1,4.7-0.4c1.9-0.4,3.2-1,4.2-2c1.3-1.3,1.6-3,0.9-4.6c-0.1-1.1-0.6-1.9-1-2.4c-0.5-0.7-1.6-1.5-3.4-1.5
			c-2.7-0.2-5-0.3-6.7-0.5c-1.7-0.1-3.2-0.3-4.2-0.4c-0.4,0-0.7-0.1-1-0.1l-1.2-9.7v-0.5c0-1.4,0.2-2.9,0.7-4.3
			c0.4-1.3,1.1-2.6,2-3.7c0.9-1.1,1.9-2,3.1-2.6c1.2-0.6,2.4-0.9,3.8-0.9c0.6,0,1.2,0.2,1.7,0.6c1,0.8,1.9,1.6,2.7,2.5
			c1,1.1,1.9,2,2.8,2.9c1.5,1.4,3.2,2.1,5.1,2.1h1.9c1.7,0,3-1.3,3-3C393.4,48.9,392.7,46.8,391.4,44.8z M388.5,51
			c-1.1,0-2.1-0.4-3-1.3c-0.9-0.8-1.8-1.8-2.7-2.8c-0.9-1-2-2-3-2.8c-1.1-0.8-2.3-1.3-3.6-1.3c-1.9,0-3.6,0.4-5.2,1.3
			c-1.6,0.8-2.9,2-4,3.3c-1.1,1.3-2,3-2.5,4.7c-0.6,1.7-0.8,3.5-0.8,5.3v0.8l1.5,12c0.1,0.1,0.4,0.2,0.9,0.3
			c0.5,0.1,1.3,0.2,2.4,0.3c1.1,0.1,2.5,0.3,4.3,0.5c1.7,0.1,4,0.3,6.8,0.5c1.2,0,1.7,0.6,1.5,1.7c0.5,0.6,0.5,1.2,0,1.7
			s-1.4,0.9-2.6,1.2c-1.2,0.3-2.8,0.4-4.6,0.3c-1.8-0.1-3.8-0.3-6-0.7c0,2.1,0.5,4.1,1.5,5.9c1,1.8,2,3.6,3.2,5.3s2.3,3.3,3.3,4.8
			c1,1.6,1.5,3.1,1.5,4.7c0,0.7-0.2,1.2-0.7,1.4c-0.3,0.2-0.8,0.3-1.5,0.3c-0.6,0-1.2-0.2-1.8-0.6c-0.6-0.4-1.2-0.9-1.8-1.5
			c-0.5-0.6-1-1.3-1.5-1.9c-0.4-0.7-0.7-1.2-0.9-1.7c-0.2-0.4-0.5-1.1-1-1.9c-0.4-0.8-0.9-1.8-1.5-2.9c-0.6-1.1-1.1-2.3-1.7-3.5
			c-0.6-1.2-1.1-2.4-1.6-3.5c-0.5-1.1-1-2.1-1.4-3c-0.4-0.8-0.8-1.5-0.9-1.9l-0.9-0.9c-0.3,0.1-0.8,0.2-1.5,0.4s-1.5,0.3-2.4,0.5
			c-0.8,0.2-1.6,0.3-2.4,0.5s-1.3,0.3-1.7,0.3h-0.4c-0.4,0-0.8-0.2-0.9-0.5c-0.2-0.3-0.3-0.7-0.3-1.1c0-0.9,0.3-1.7,1-2.2
			s1.5-0.9,2.4-1.1c0.9-0.2,1.9-0.4,3-0.5c1-0.1,1.9-0.2,2.6-0.2c-0.1-1.7-0.2-3.7-0.3-5.9c-0.1-2.3,0.1-4.7,0.3-7.1
			c0.2-2.4,0.7-4.9,1.4-7.2c0.6-2.4,1.6-4.5,2.8-6.4c1.2-1.9,2.7-3.4,4.6-4.6c1.9-1.2,4.1-1.8,6.8-1.8c1.5,0,3.1,0.4,4.9,1.1
			c1.8,0.8,3.4,1.7,5,3c1.5,1.2,2.8,2.6,3.8,4.1s1.5,3.1,1.5,4.6H388.5z"/>
		<path class="st0" d="M436.8,92.7c-0.4-1.1-0.9-2.4-1.4-3.7c-0.5-1.3-1-2.6-1.5-4c-0.5-1.3-0.8-2.4-1.1-3.5c0,0,0-0.4-0.1-1.6
			c-0.1-1.1-0.1-2.4-0.2-3.9c-0.1-1.6-0.2-3.2-0.3-4.8c-0.1-1.7-0.3-3.4-0.6-4.9c-0.3-1.7-0.7-3.1-1.3-4.2c-1.3-2.6-3.3-3-4.4-3
			c-1.2,0-2.4,0.4-3.3,1.1c-0.7,0.5-1.3,1.2-1.8,2.1c-0.3,0.4-0.4,1-0.4,1.5s0,1.4,0,2.7c0,1.2,0,2.6,0,4c0,1.4,0,2.7,0,4
			c0,1.3,0,2.2,0,2.8c0,0.2,0,0.8-0.8,2.2c-0.7,1.3-1.6,2.6-2.6,3.8c-1,1.1-2.1,2.2-3.2,3c-1.1,0.9-1.6,0.9-1.6,0.9
			c-1,0-1.9-0.3-2.7-0.8c-1-0.6-1.9-1.5-2.7-2.5c-0.8-1.1-1.6-2.4-2.2-3.9c-0.7-1.6-1.3-3.2-1.7-4.8c-0.5-1.6-0.8-3.1-1-4.6
			s-0.3-2.7-0.3-3.7c0-0.1,0.1-0.3,0.1-0.6c0.1-0.5,0.1-1,0.2-1.5l0.2-1.4c0-0.1,0-0.1,0-0.2c0-0.1,0.1-0.3,0.1-0.4
			c0.7-2.8,0.4-4.9-0.9-6.4c-1-1-2.2-1.6-3.5-1.6c-0.8,0-1.6,0.3-2.4,0.7c-1.5,0.9-2.7,2.5-3.6,4.9c-0.7,2.1-0.9,4.9-0.4,8.3
			c0,1.7,0.2,3.5,0.5,5.5s0.8,4.1,1.4,6.2c0.6,2.1,1.4,4.2,2.4,6.2c1.1,2,2.3,3.9,3.7,5.6c1.5,1.7,3.3,3.2,5.2,4.2
			c2,1.1,4.3,1.7,6.8,1.7c2.3,0,4.3-0.5,5.9-1.4c1.3-0.8,2.6-1.7,3.7-2.8c1-1,1.9-2,2.9-3.1c0.3-0.3,0.5-0.6,0.8-0.8
			c0.2,0.5,0.4,0.9,0.5,1.4c0.3,0.8,0.4,1.5,0.5,2.2c0.1,1,0.3,1.9,0.5,2.7c0.3,1.2,0.8,2.2,1.6,3c0.7,0.7,2,1.6,4.2,1.6
			c1.1,0,2-0.1,2.9-0.4c0.6-0.2,2.7-1.2,2.7-4.3C437.6,95.2,437.3,94.1,436.8,92.7z M433.7,97.4c-0.5,0.2-1.1,0.3-1.8,0.3
			c-0.9,0-1.5-0.2-2-0.7c-0.4-0.4-0.7-1-0.9-1.7c-0.2-0.7-0.3-1.5-0.5-2.3c-0.1-0.8-0.3-1.7-0.5-2.6c-0.3-0.9-0.6-1.7-1.1-2.5
			c-0.4-0.5-1.1-1.2-1.9-1.7c-1.3,0.7-2.4,1.6-3.3,2.6c-0.9,1-1.9,2-2.8,2.9c-0.9,0.9-2,1.7-3.1,2.4s-2.6,1-4.4,1
			c-2,0-3.8-0.4-5.4-1.3c-1.6-0.9-3.1-2-4.3-3.5c-1.2-1.5-2.3-3.1-3.3-5s-1.7-3.8-2.3-5.8s-1-3.9-1.3-5.9c-0.3-1.9-0.5-3.7-0.5-5.2
			c-0.4-3-0.4-5.4,0.3-7.1c0.6-1.7,1.4-2.8,2.2-3.3c0.9-0.5,1.6-0.4,2.2,0.3c0.6,0.7,0.7,1.9,0.3,3.6c-0.1,0.2-0.2,0.6-0.3,1
			c-0.1,0.4-0.1,1-0.2,1.5c-0.1,0.5-0.1,1-0.2,1.4c-0.1,0.4-0.1,0.8-0.1,0.9c0,1.2,0.1,2.6,0.3,4.1c0.2,1.6,0.6,3.2,1,5
			c0.4,1.8,1.1,3.4,1.8,5.1c0.7,1.7,1.6,3.2,2.6,4.6c1,1.4,2.2,2.4,3.5,3.3c1.3,0.8,2.7,1.3,4.3,1.3c1,0,2.1-0.5,3.4-1.5
			c1.3-1,2.5-2.1,3.6-3.5c1.1-1.4,2.1-2.8,2.9-4.2c0.8-1.4,1.2-2.7,1.2-3.7c0-0.6,0-1.5,0-2.8c0-1.3,0-2.6,0-4.1s0-2.8,0-4.1
			s0-2.2,0-2.7c0.3-0.6,0.7-1,1.1-1.3c0.4-0.3,0.9-0.5,1.4-0.5c0.7,0,1.2,0.4,1.7,1.3c0.4,0.9,0.8,2,1.1,3.4
			c0.3,1.4,0.5,2.9,0.6,4.5c0.1,1.6,0.2,3.2,0.3,4.7s0.1,2.8,0.2,4c0.1,1.1,0.1,1.9,0.3,2.3c0.3,1.1,0.7,2.4,1.2,3.8
			c0.5,1.4,1,2.7,1.5,4.1c0.5,1.4,0.9,2.5,1.3,3.6c0.4,1.1,0.6,1.9,0.6,2.5C434.4,96.7,434.2,97.2,433.7,97.4z"/>
		<path class="st0" d="M456.1,74c-0.1-5.4-0.4-12.1-0.7-20c0-0.6-0.1-1.3-0.3-2s-0.5-1.5-0.9-2.2c-0.4-0.8-1-1.5-1.6-2.1
			c-1-0.8-2.1-1.3-3.4-1.3c-0.9,0-1.7,0.2-2.5,0.6c-1.4,0.6-2.2,2-2.2,3.6c0,3.9,0,7.8-0.1,11.6c-0.1,3.9-0.2,7.9-0.2,11.9
			c0,3.9,0.1,8,0.2,11.9c0.2,4,0.5,8.1,1.1,12.1c0.2,1.2,1.1,2.2,2.4,2.5c0.5,0.1,1.1,0.2,1.6,0.3c0.3,0.1,0.6,0.1,0.9,0.1
			c0.8,0,2.4-0.2,3.6-2c0.7-0.9,1.2-2.3,1.5-4.4c0.3-1.7,0.5-4.2,0.6-7.6C456.2,83.7,456.2,79.4,456.1,74z M453.1,86.9
			c-0.1,3.3-0.3,5.7-0.5,7.2s-0.6,2.6-1,3.2c-0.4,0.6-0.9,0.8-1.4,0.7c-0.6-0.1-1.1-0.2-1.7-0.3c-0.6-4-0.9-7.9-1-11.8
			c-0.1-3.9-0.2-7.9-0.2-11.8c0-3.9,0.1-7.9,0.2-11.8s0.1-7.8,0.1-11.7c0-0.4,0.2-0.8,0.5-0.9c0.3-0.2,0.7-0.3,1.2-0.3
			s0.9,0.2,1.3,0.5c0.4,0.4,0.7,0.8,1,1.3s0.5,1.1,0.6,1.6s0.2,1,0.2,1.3c0.3,8,0.6,14.6,0.7,19.9C453.2,79.3,453.2,83.6,453.1,86.9
			z"/>
		<path class="st0" d="M480.7,92.9c-0.3-1.3-0.8-2.6-1.5-3.7c-0.7-1.2-1.7-2.3-2.9-3.1c-1.3-0.9-2.9-1.4-4.6-1.4
			c-2,0-3.3,1.6-3.7,2.1c-0.6,0.8-1.2,1.7-1.8,2.8c-0.5,1-1,2-1.4,3c-0.6,1.2-0.8,2.2-0.8,3.1c0,0.9,0.1,1.8,0.4,3s0.7,2.3,1.3,3.4
			c0.6,1.1,1.4,2.1,2.2,2.9c1.1,1.1,2.6,1.7,4.2,1.7c1.4,0,2.7-0.4,3.8-1.2c1-0.6,1.8-1.5,2.6-2.4c0.7-1,1.3-1.9,1.8-3
			c0.6-1.2,0.9-2.4,0.9-3.5C481.2,95.4,481,94.2,480.7,92.9z M477.5,98.8c-0.4,0.8-0.9,1.6-1.5,2.3c-0.6,0.7-1.2,1.3-2,1.8
			s-1.4,0.8-2.2,0.8s-1.6-0.3-2.2-0.9c-0.6-0.6-1.2-1.3-1.6-2.2c-0.5-0.9-0.8-1.8-1-2.7c-0.2-0.9-0.1-1.6-0.1-2.2
			c0-0.4,0.2-1.1,0.5-2c0.4-0.9,0.8-1.8,1.3-2.7c0.5-0.9,1-1.7,1.5-2.4c0.5-0.7,1-1,1.4-1c1.1,0,2.1,0.3,2.9,0.9
			c0.8,0.6,1.5,1.3,2,2.2c0.5,0.9,0.9,1.9,1.2,2.9s0.4,2,0.4,2.9C478.1,97.2,477.9,97.9,477.5,98.8z"/>
		<g>
			<path class="st0" d="M522.9,69.6c-1-0.4-1.8-0.6-2.5-0.6h-0.1c-0.9,0-1.6,0.2-2.3,0.6c-0.7,0.4-1.3,1.1-1.6,1.9
				c0,0.1,0,0.1-0.1,0.2c-0.2,0.2-0.4,0.6-0.5,0.9c-1.6,4.6-2.9,9.4-3.9,14.3c-1,4.6-2,9.5-3.1,14.3c-1.1,4.7-2.3,9.4-3.6,14.1
				c-1.3,4.6-3,9-5,13.3c-0.1,0-0.1,0.1-0.1,0.1c-0.1,0.2-0.3,0.5-0.5,0.9c-0.1,0.2-0.2,0.4-0.4,0.5c0,0.1-0.1,0.1-0.1,0.1
				c-1.1-0.5-2-1.2-2.6-2.2c-0.8-1.3-1.4-2.7-1.8-4.2c-0.4-1.6-0.7-3.4-0.8-5.2c-0.1-2-0.1-4-0.2-5.8c-0.1-1.9-0.2-3.6-0.4-5.1
				c-0.3-1.9-0.8-3.4-1.7-4.5c-0.5-0.6-1.1-1-1.8-1.1c-0.4-0.1-0.8-0.1-1.1-0.1c-0.7,0-1.5,0.2-2.1,0.5c-0.8,0.4-1.4,1-1.9,1.7
				c-0.4,0.5-0.6,1.1-0.8,1.6c-0.1,0.3-0.2,0.5-0.3,0.8c0,0.1-0.1,0.2-0.1,0.3c-0.9,3.1-1.3,6.3-1.2,9.7c0.1,3.3,0.6,6.6,1.6,9.7
				s2.4,6.1,4.1,8.8c1.7,2.8,3.9,5.2,6.3,7.1c0.1,0,0.1,0.1,0.2,0.1c1.2,0.8,2.5,1.2,3.8,1.2c1,0,2-0.3,3-0.7c1.8-0.8,3.4-2.3,5-4.4
				c1.4-1.9,2.8-4.3,4.2-7.1c1.3-2.7,2.6-5.8,3.8-9c1.3-3.2,2.4-6.7,3.5-10.2c1-3.5,2-7,2.9-10.5c0.9-3.5,1.7-6.9,2.3-10.1
				c0.6-3.2,1.1-6.2,1.5-8.8c0.4-2.7,0.7-5,0.7-6.8c0.1-2.4-0.2-4-0.9-5.1C523.9,70.2,523.5,69.8,522.9,69.6z M521.3,82
				c-0.3,2.6-0.9,5.5-1.5,8.7s-1.4,6.5-2.3,10c-0.9,3.4-1.8,6.9-2.9,10.4c-1.1,3.5-2.2,6.8-3.4,10c-1.2,3.2-2.5,6.1-3.7,8.8
				c-1.3,2.7-2.6,4.9-3.9,6.6c-1.3,1.7-2.6,2.9-3.9,3.5c-1.1,0.7-2.3,0.6-3.6-0.2c-2.2-1.7-4.1-3.8-5.7-6.3s-2.8-5.2-3.7-8.1
				c-0.9-2.9-1.4-5.8-1.5-8.9s0.3-6,1.1-8.8c0.2-0.4,0.3-0.7,0.4-1c0.1-0.3,0.2-0.6,0.4-0.9s0.4-0.5,0.7-0.7
				c0.3-0.2,0.7-0.2,1.2-0.1c0.5,0.6,0.9,1.7,1,3s0.3,3,0.3,4.8c0.1,1.8,0.1,3.8,0.2,5.8c0.1,2,0.4,4,0.9,5.8c0.5,1.8,1.2,3.5,2.2,5
				s2.4,2.6,4.1,3.4c0.6,0.2,1.1,0.3,1.6,0.1c0.5-0.1,1-0.4,1.4-0.7s0.8-0.7,1.1-1.2s0.5-0.9,0.7-1.3c2.1-4.4,3.9-9,5.2-13.7
				c1.4-4.7,2.6-9.5,3.6-14.3c1.1-4.8,2.1-9.6,3.1-14.4c1-4.8,2.3-9.5,3.8-14c0.3-0.3,0.4-0.6,0.5-0.9c0.1-0.3,0.3-0.4,0.5-0.6
				c0.2-0.1,0.5-0.2,0.8-0.2s0.8,0.1,1.4,0.4c0.4,0.6,0.5,1.7,0.5,3.5C521.9,77.2,521.6,79.4,521.3,82z"/>
			<path class="st0" d="M528.6,57.9c-0.1-1.1-0.5-2.2-1.1-3.1c-0.5-0.9-1.6-2-3.6-2.4c-0.2-0.1-0.5-0.1-0.8-0.1
				c-0.6,0-1.2,0.1-2,0.4c-0.5,0.1-2.1,0.7-2.7,2.2c-0.5,1.4-0.8,2.8-0.7,4.1c0,1.4,0.4,2.7,1.1,3.7c0.7,1.1,1.8,2,3.1,2.4
				c0.6,0.2,1.3,0.3,1.9,0.3c0.7,0,1.5-0.1,2.2-0.3c0.8-0.3,1.5-0.9,1.8-1.7c0.3-0.7,0.5-1.5,0.7-2.5
				C528.7,59.9,528.7,58.9,528.6,57.9z M525.5,60.3c-0.2,0.7-0.3,1.4-0.5,1.9c-0.8,0.3-1.5,0.3-2.2,0.1s-1.2-0.6-1.6-1.2
				c-0.4-0.6-0.6-1.3-0.7-2.2c0.1-0.9,0.3-1.8,0.7-2.7c0.1-0.2,0.4-0.4,0.9-0.6c0.5-0.2,0.9-0.3,1.2-0.2c0.8,0.2,1.3,0.5,1.7,1
				s0.6,1.1,0.6,1.8C525.7,58.9,525.7,59.6,525.5,60.3z"/>
		</g>
		<path class="st0" d="M569.4,101.1c-0.6-2.2-1.7-4.1-3.4-5.7c-1.5-1.5-3.3-2.8-5.4-3.9c-0.4-0.2-0.7-0.3-1-0.5
			c1.1-0.4,2-1.1,2.8-2.1c0.7-1,1.3-2.2,1.6-3.7c0.7-2.5,0.5-5-0.7-7.2c-1-2.1-2.6-3.8-4.6-5.2c-1.9-1.3-4.1-2.3-6.5-3
			c-2.3-0.7-4.6-1-6.9-1H545c-2.4,0.1-4.7,0.5-6.8,1.4c-2.3,1-4.1,2.7-5.3,4.9c-0.1,0.2-0.1,0.4-0.2,0.6c-0.8,2.8-1,5.4-0.4,7.7
			c0.5,2.2,1.6,4.2,3.2,5.9c1.4,1.5,3.2,2.9,5.2,4c1.9,1,3.8,1.9,5.8,2.8c1.9,0.8,3.8,1.6,5.6,2.4c1.6,0.7,3,1.5,4.2,2.3
			c1,0.7,1.6,1.4,2,2.1c0,0.1,0.3,0.5-0.1,1.6v0.1c-0.3,1-0.7,1.2-0.8,1.2c-0.6,0.2-1.3,0.3-2,0.3c-0.2,0-0.5,0-0.8,0
			c-1.3-0.2-2.6-0.4-4-0.9c-1.6-0.5-3-0.9-4.1-1.3c-1.4-0.4-2.5-0.8-3.3-1.1c-0.6-0.2-1.2-0.5-1.6-0.8c-0.5-0.4-1.1-0.9-1.7-1.4
			c-0.7-0.7-1.7-1.5-2.9-2.5c-0.3-0.2-0.5-0.4-0.7-0.7c-0.3-0.4-0.5-0.8-0.8-1.2c-0.4-0.7-0.9-1.3-1.5-1.9c-0.7-0.7-1.6-1.2-2.5-1.5
			c-0.7-0.2-1.3-0.4-1.9-0.4c-0.1,0-0.3,0-0.4,0c-0.7,0-1.4,0.1-2.2,0.4c-1.3,0.5-2.1,1.7-2,3.1c0.2,2.3,0.7,4.4,1.7,6.2
			c0.9,1.7,2.1,3.3,3.5,4.7c1.3,1.3,2.9,2.5,4.7,3.5c1.7,0.9,3.3,1.7,5,2.4c1.6,0.7,3.3,1.4,4.9,1.9s3.1,1,4.5,1.4
			c1.6,0.5,3.4,0.8,5.3,0.9c0.4,0,0.8,0,1.2,0c1.5,0,3-0.2,4.5-0.4c1.9-0.5,3.7-1.3,5.2-2.5c1.7-1.3,2.9-3.2,3.6-5.4
			C569.9,105.8,570.1,103.3,569.4,101.1z M566.2,107.4c-0.5,1.7-1.4,2.9-2.6,3.9c-1.2,0.9-2.6,1.6-4.2,2c-1.6,0.4-3.2,0.5-4.8,0.4
			c-1.7-0.1-3.2-0.4-4.6-0.8c-1.4-0.4-2.9-0.9-4.4-1.4s-3.1-1.1-4.7-1.8c-1.6-0.7-3.1-1.4-4.7-2.3c-1.5-0.9-2.9-1.9-4.1-3
			c-1.2-1.2-2.2-2.5-2.9-3.9c-0.6-1.3-1.1-3-1.3-4.9c0.5-0.2,1-0.3,1.3-0.2c0.4,0,0.8,0.1,1.2,0.2c0.5,0.1,0.9,0.4,1.3,0.8
			c0.4,0.4,0.8,0.8,1,1.3c0.3,0.5,0.6,0.9,0.9,1.4c0.3,0.5,0.7,0.9,1.1,1.2c1.2,1,2.2,1.8,2.9,2.5c0.7,0.6,1.4,1.2,2,1.6
			c0.6,0.4,1.4,0.8,2.3,1.1c0.9,0.3,2.1,0.7,3.5,1.2c1.1,0.3,2.5,0.8,4.1,1.3s3.1,0.9,4.7,1c1.5,0.2,2.9,0,4.2-0.5s2.1-1.5,2.6-3.1
			c0.5-1.5,0.5-2.9-0.1-4c-0.6-1.2-1.6-2.2-2.9-3.1c-1.3-0.9-2.9-1.8-4.7-2.6s-3.7-1.6-5.6-2.4c-1.9-0.8-3.7-1.7-5.5-2.7
			s-3.3-2.1-4.5-3.5c-1.2-1.3-2.1-2.9-2.5-4.6c-0.4-1.8-0.3-3.8,0.3-6.2c0.8-1.6,2.1-2.8,3.8-3.5c1.7-0.7,3.6-1.1,5.7-1.1
			s4.2,0.3,6.3,0.9c2.1,0.6,4,1.5,5.6,2.6s2.8,2.5,3.6,4.1c0.8,1.6,1,3.3,0.5,5.1c-0.2,1.1-0.6,2-1.1,2.6s-1,1-1.6,1.2
			s-1.1,0.2-1.5,0c-0.5-0.2-0.8-0.5-0.9-0.9c-0.2-0.4-0.1-1,0.1-1.6c0.2-0.6,0.8-1.4,1.7-2.2c0.1-1.1-0.3-2.1-1.1-3
			s-1.9-1.7-3.1-2.3c-1.3-0.7-2.7-1.1-4.2-1.5c-1.6-0.3-3-0.5-4.4-0.5s-2.6,0.3-3.6,0.7c-1,0.4-1.6,1.1-1.7,2.1
			c-0.5,1.6-0.4,3,0.2,4.1c0.6,1.1,1.7,2.2,3,3.2c1.3,0.9,3,1.8,4.8,2.6c1.8,0.8,3.8,1.6,5.8,2.5c2,0.9,3.9,1.7,5.7,2.6
			c1.8,0.9,3.4,2.1,4.7,3.3s2.2,2.7,2.7,4.4C567,103.3,566.9,105.2,566.2,107.4z M553.1,88.1c-1.4-0.6-2.7-1.2-4.1-1.8
			c-1.7-0.7-3.1-1.5-4.3-2.3c-1-0.7-1.7-1.4-2.1-2.2c-0.1-0.2-0.4-0.6,0-1.8c0-0.1,0-0.1,0-0.1h0.1c0.6-0.3,1.4-0.5,2.4-0.5h0.3
			c1.1,0,2.2,0.1,3.4,0.4c1.3,0.3,2.5,0.7,3.5,1.2c0.9,0.5,1.7,1.1,2.3,1.7c-0.6,0.7-1,1.4-1.3,2.1C552.9,86,552.8,87.1,553.1,88.1z
			"/>
	</g>
</g>
</svg>
